<svg xmlns="http://www.w3.org/2000/svg" width="500" height="250" viewBox="10 -50 5 160" fill="none" transform="rotate(290)" >

  <path xmlns="http://www.w3.org/2000/svg" d="m 0,0 c 0.02,0.062 0.06,0.124 0.044,0.146 -2.723,3.697 -5.458,7.385 -8.156,11.099 -0.214,0.294 -0.172,0.773 -0.249,1.166 0.377,-0.139 0.876,-0.169 1.109,-0.433 1.146,-1.299 2.31,-2.598 3.304,-4.012 C -1.576,4.589 0.701,1.145 3.028,-2.265 3.278,-2.63 3.604,-2.944 3.941,-3.337 0.549,6.685 -6.753,14.115 -12.47,22.562 -11.144,13.478 -9.307,4.675 0,0 m 24.808,35.262 0.225,-0.293 c 0.309,0.159 0.64,0.287 0.924,0.483 2.694,1.856 5.39,3.71 8.068,5.59 2.014,1.413 4.178,2.674 5.963,4.337 3.213,2.99 5.761,6.526 7.217,10.734 0.551,1.594 0.979,3.231 1.463,4.849 l -0.501,0.281 c -6.328,-6.74 -12.656,-13.48 -18.984,-20.222 0.383,-0.264 0.505,-0.292 0.567,-0.244 2.751,2.206 5.486,4.434 8.263,6.609 0.258,0.203 0.771,0.083 1.167,0.113 -0.156,-0.362 -0.212,-0.844 -0.483,-1.063 -0.829,-0.673 -1.77,-1.207 -2.612,-1.864 C 33.24,42.352 30.403,40.121 27.6,37.85 26.615,37.053 25.735,36.128 24.808,35.262 M -5.801,38.13 c 4.649,-5.166 9.303,-10.341 13.958,-15.515 0.062,0.042 0.124,0.085 0.186,0.128 -6.01,8.99 -12.019,17.981 -18.231,27.275 0.308,-3.013 0.404,-5.729 0.909,-8.366 0.444,-2.324 0.902,-4.844 2.138,-6.776 2.515,-3.928 6.166,-6.855 10.041,-9.457 0.874,-0.587 1.653,-1.316 2.475,-1.98 -2.171,2.739 -4.557,5.241 -6.899,7.784 -1.589,1.725 -3.116,3.507 -4.67,5.265 -0.445,0.504 -0.922,1.013 0.093,1.642 M 20.552,5.006 c 2.582,1.069 5.203,2.057 7.739,3.227 4.269,1.97 8.147,4.524 11.52,7.853 3.555,3.509 5.937,7.705 7.902,12.682 -8.06,-6.465 -16.059,-12.372 -23.127,-19.416 3.713,2.185 6.697,5.499 10.688,7.228 0.15,-0.212 0.299,-0.424 0.448,-0.636 C 30.566,12.392 25.882,8.22 20.552,5.006 m -5.586,42.037 c 0.16,0.047 0.32,0.093 0.48,0.14 -0.432,4.514 -0.77,9.04 -1.329,13.538 -0.422,3.396 -1.049,6.773 -1.732,10.129 -0.468,2.296 -1.191,4.542 -1.8,6.81 -0.508,1.893 -0.961,3.802 -1.539,5.673 -0.707,2.285 -1.734,4.466 -1.96,6.901 C 6.992,91.245 6.598,92.228 6.317,93.311 6.079,93.118 5.953,93.067 5.946,93.004 5.453,88.631 4.929,84.262 4.503,79.882 4.277,77.559 4.096,75.216 4.134,72.886 c 0.036,-2.144 0.21,-4.32 0.644,-6.414 1.108,-5.339 3.688,-10.054 6.605,-14.595 0.271,-0.423 0.653,-0.775 1.123,-1.323 -0.258,1.187 -0.47,2.061 -0.635,2.945 -0.395,2.109 -0.61,4.269 -1.188,6.325 -0.801,2.844 -1.906,5.601 -2.789,8.424 -0.152,0.484 0.148,1.11 0.24,1.672 0.37,-0.37 0.934,-0.678 1.077,-1.121 0.852,-2.642 1.686,-5.294 2.373,-7.983 0.623,-2.44 1.031,-4.933 1.57,-7.396 0.402,-1.832 0.849,-3.654 1.309,-5.473 0.082,-0.323 0.331,-0.603 0.503,-0.904 M 6.404,-13.899 c 0.599,1.494 1.153,2.646 1.526,3.854 1.012,3.276 2.079,6.544 2.88,9.875 0.927,3.857 1.543,7.784 1.063,11.781 -0.284,2.367 -1.458,4.322 -2.891,6.182 -2.705,3.513 -6.304,6.019 -9.683,8.774 -2.735,2.23 -5.562,4.431 -7.25,7.572 -1.065,1.982 -1.761,4.235 -2.218,6.451 -0.519,2.51 -0.644,5.109 -0.821,7.678 -0.083,1.196 0.096,2.413 0.201,3.616 0.015,0.162 0.356,0.457 0.431,0.425 0.275,-0.12 0.578,-0.302 0.735,-0.547 1.133,-1.76 2.175,-3.58 3.356,-5.305 1.622,-2.366 3.383,-4.638 5.01,-7.001 1.894,-2.75 3.695,-5.563 5.557,-8.336 1.347,-2.006 2.885,-3.901 4.061,-6 2.209,-3.939 3.556,-8.231 4.588,-12.618 0.041,-0.174 -0.062,-0.381 -0.098,-0.573 0.161,0.025 0.322,0.05 0.484,0.076 0.092,1.17 0.163,2.343 0.279,3.511 0.144,1.43 0.389,2.854 0.475,4.289 0.128,2.147 -0.243,4.418 0.338,6.421 0.592,2.036 0.284,3.998 0.488,5.979 0.089,0.864 -0.058,1.75 -0.021,2.623 0.101,2.475 0.452,4.962 0.278,7.414 -0.084,1.191 -1.081,2.337 -1.734,3.463 -2.446,4.22 -5.193,8.291 -7.299,12.672 -1.772,3.684 -3.29,7.611 -3.349,11.821 -0.044,3.189 0.042,6.393 0.321,9.569 0.491,5.575 1.235,11.129 1.736,16.703 0.134,1.494 -0.235,3.032 -0.345,4.551 -0.029,0.406 0.042,0.82 0.073,1.339 1.127,-0.516 1.889,-1.055 2.264,-2.384 1.329,-4.712 3.037,-9.32 4.284,-14.051 1.172,-4.44 2.768,-8.78 3.162,-13.43 0.222,-2.607 1.072,-5.157 1.351,-7.765 0.492,-4.627 1.649,-9.195 1.301,-13.911 -0.094,-1.298 0.167,-2.617 0.197,-3.928 0.072,-3.145 0.208,-6.293 0.128,-9.436 -0.096,-3.792 -0.355,-7.581 -0.611,-11.367 -0.1,-1.485 -0.381,-2.959 -0.448,-4.451 1.942,5.003 4.282,9.767 7.353,14.116 1.702,2.411 3.781,4.556 5.697,6.815 1.084,1.28 2.143,2.582 3.281,3.814 1.764,1.909 3.601,3.753 5.378,5.65 2.086,2.228 4.089,4.535 6.233,6.706 1.175,1.19 2.601,2.128 3.837,3.264 0.431,0.396 0.588,1.075 0.949,1.566 0.313,0.428 0.738,0.775 1.113,1.157 0.118,-0.421 0.369,-0.855 0.334,-1.263 -0.271,-3.146 -1.367,-6.061 -2.379,-9.03 C 46.771,50.823 44.351,48.19 41.854,45.512 39.962,43.48 37.827,41.829 35.517,40.294 30.834,37.184 26.256,33.909 21.733,30.567 20.995,30.021 20.698,28.812 20.316,27.862 18.854,24.222 17.303,20.607 16.066,16.89 15.467,15.09 15.542,13.074 15.215,11.173 14.988,9.86 14.551,8.585 14.288,7.277 13.826,4.98 13.507,2.653 12.976,0.374 c -0.393,-1.686 -1.028,-3.315 -1.338,-5.11 0.508,0.729 1.072,1.428 1.518,2.195 2.408,4.146 5.313,7.932 8.756,11.239 3.294,3.164 6.78,6.138 10.287,9.069 2.697,2.254 5.612,4.249 8.33,6.478 2.395,1.964 4.648,4.101 6.977,6.145 0.71,0.622 1.468,1.188 2.179,1.76 0.902,-1.131 -0.01,-1.797 -0.372,-2.599 -0.995,-2.2 -1.875,-4.454 -2.932,-6.623 C 44.423,18.913 41.59,15.56 38.137,12.759 34.13,9.508 29.582,7.226 24.81,5.279 22.522,4.347 20.426,2.891 18.355,1.503 17.057,0.633 15.712,-0.376 14.843,-1.636 13.567,-3.486 12.69,-5.612 11.661,-7.631 10.095,-10.702 8.53,-13.775 6.988,-16.86 5.812,-19.218 4.646,-21.581 3.529,-23.967 3.2,-24.671 3.134,-25.5 2.79,-26.193 c -0.204,-0.41 -0.766,-0.968 -1.081,-0.919 -0.477,0.075 -0.894,0.606 -1.306,0.977 -0.157,0.141 -0.231,0.374 0.091,0.432 1.02,2.436 1.83,4.989 3.107,7.282 2.109,3.79 0.99,7.684 0.722,11.533 -0.117,1.689 -1.787,2.579 -2.977,3.624 -2.886,2.534 -6.451,4.263 -8.836,7.385 -1.688,2.21 -3.204,4.471 -3.766,7.327 -0.526,2.679 -1.63,5.242 -2.188,7.917 -0.518,2.478 -0.653,5.035 -0.94,7.56 -0.012,0.102 0.143,0.223 0.415,0.619 0.608,-0.996 1.087,-1.898 1.673,-2.723 3.12,-4.399 6.307,-8.753 9.389,-13.178 1.717,-2.464 3.465,-4.939 4.85,-7.591 1.502,-2.872 2.698,-5.878 3.662,-9.04 0.898,-2.941 -0.376,-5.749 0.799,-8.911" style="fill:#ffffff;fill-opacity:1;fill-rule:nonzero;stroke:none" id="path898"/>
</svg>